<svg xmlns="http://www.w3.org/2000/svg" xmlns:xlink="http://www.w3.org/1999/xlink" xml:space="preserve" version="1.1" style="shape-rendering:geometricPrecision;text-rendering:geometricPrecision;image-rendering:optimizeQuality;" viewBox="0 0 1.783 1.92125" x="0px" y="0px" fill-rule="evenodd" clip-rule="evenodd"><defs><style type="text/css">
   
    .fil0 {fill:black}
   
  </style></defs><g><path class="fil0" d="M0.892 1.23c-0.053,0 -0.096,-0.042 -0.096,-0.095 0,-0.053 0.043,-0.096 0.096,-0.096 0.053,0 0.095,0.043 0.095,0.096 0,0.053 -0.042,0.095 -0.095,0.095zm0.857 -0.106l-0.58 -0.949c-0.032,-0.047 -0.068,-0.089 -0.112,-0.121 -0.047,-0.034 -0.101,-0.054 -0.165,-0.054 -0.064,0 -0.118,0.02 -0.166,0.054 -0.043,0.032 -0.079,0.074 -0.111,0.121l-0.583 0.954c-0.044,0.091 -0.044,0.195 0.009,0.282 0.047,0.077 0.13,0.126 0.22,0.126l1.261 0c0.091,0 0.173,-0.049 0.22,-0.126 0.053,-0.086 0.055,-0.198 0.007,-0.287zm-0.857 -0.18c-0.035,0 -0.06,-0.029 -0.064,-0.064l-0.032 -0.287c-0.005,-0.049 0.047,-0.095 0.096,-0.095 0.049,0 0.101,0.046 0.095,0.095l-0.032 0.287c-0.003,0.035 -0.028,0.064 -0.063,0.064z"/></g><text x="0" y="16.537" fill="#000000" font-size="5px" font-weight="bold" font-family="'Helvetica Neue', Helvetica, Arial-Unicode, Arial, Sans-serif">Created by Deemak Daksina</text><text x="0" y="21.537" fill="#000000" font-size="5px" font-weight="bold" font-family="'Helvetica Neue', Helvetica, Arial-Unicode, Arial, Sans-serif">from the Noun Project</text></svg>